<svg id="Layer_1" data-name="Layer 1" xmlns="http://www.w3.org/2000/svg" viewBox="0 0 1063.55 266.22"><defs><style>.cls-1{fill:#fff;}</style></defs><title>Coronation_Logo_Straight_Positioning_RGB</title><path class="cls-1" d="M65.33,149.88a2,2,0,0,1,0,2.85c-8.16,8.1-16.5,11.55-27.91,11.55-20.75,0-36.4-15.82-36.4-36.8v-.2c0-21.09,15.87-37,36.91-37,10.87,0,19.15,3.11,26.85,10.09a2,2,0,0,1,.16,2.82L59,110a2,2,0,0,1-1.38.68,2,2,0,0,1-1.49-.5c-6-5.26-11.66-7.61-18.31-7.61-13,0-22.86,10.52-22.86,24.48v.2c0,14,9.83,24.58,22.86,24.58,8.29,0,13.54-3.18,18.88-8a2,2,0,0,1,2.79.07Zm86.59-22.8v.2c0,20.75-16.48,37-37.51,37-21.27,0-37.31-15.82-37.31-36.8v-.2c0-20.75,16.48-37,37.51-37C135.88,90.28,151.92,106.1,151.92,127.08Zm-13.94.2c0-14.07-10.14-24.68-23.57-24.68S91,113.12,91,127.08v.2c0,14,10.13,24.58,23.57,24.58S138,141.38,138,127.48Zm182.45-.2v.2c0,20.75-16.48,37-37.51,37-21.27,0-37.3-15.82-37.3-36.8v-.2c0-20.75,16.47-37,37.5-37C304.39,90.28,320.43,106.1,320.43,127.08Zm-13.94.2c0-14.07-10.14-24.68-23.57-24.68s-23.37,10.52-23.37,24.48v.2c0,14,10.13,24.58,23.57,24.58s23.37-10.48,23.37-24.38ZM546.77,91.49H492.56a2,2,0,0,0-2,2v8.38a2,2,0,0,0,2,2h20.38v57.14a2,2,0,0,0,2,2h9.39a2,2,0,0,0,2-2V103.91h20.39a2,2,0,0,0,2-2V93.51a2,2,0,0,0-2-2m32,0h-9.3a2,2,0,0,0-2,2v67.54a2,2,0,0,0,2,2h9.3a2,2,0,0,0,2-2V93.51a2,2,0,0,0-2-2m95.53,35.59v.2c0,20.75-16.47,37-37.5,37-21.27,0-37.31-15.82-37.31-36.8v-.2c0-20.75,16.48-37,37.51-37C658.25,90.28,674.28,106.1,674.28,127.08Zm-13.94.2c0-14.07-10.13-24.68-23.56-24.68s-23.37,10.52-23.37,24.48v.2c0,14,10.13,24.58,23.57,24.58s23.36-10.48,23.36-24.38ZM488.88,162.16a2,2,0,0,1-1.69.91h-7.33c-3.34-.36-4.43-1.86-4.75-2.49l-.13-.3-5.72-13.59a1.08,1.08,0,0,0-1-.68H436.91a1.09,1.09,0,0,0-1,.67L430,160.57c-.35.67-1.5,2.17-4.88,2.5h-6.82a2,2,0,0,1-1.69-.91,2,2,0,0,1-.16-1.92l29.73-68A2,2,0,0,1,448,91h9.46a2,2,0,0,1,1.85,1.22l29.73,68A2,2,0,0,1,488.88,162.16ZM464,134.09l-11.51-26.65-11.42,26.65Zm-64.49-42.6h-9.09a2,2,0,0,0-2,2v46l-36.57-47.2a2,2,0,0,0-1.59-.78H341.1a2,2,0,0,0-2,2v67.54a2,2,0,0,0,2,2h9.09a2,2,0,0,0,2-2V113.68l36.48,47a3.18,3.18,0,0,1,.25.26,6.06,6.06,0,0,0,4.68,2.15h5.93a2,2,0,0,0,2-2V93.51a2,2,0,0,0-2-2m352.24,0H742.7a2,2,0,0,0-2,2v46l-36.57-47.2a2,2,0,0,0-1.59-.78h-9.18a2,2,0,0,0-2,2v67.54a2,2,0,0,0,2,2h9.09a2,2,0,0,0,2-2V113.68l36.48,47a3.18,3.18,0,0,1,.25.26,6.06,6.06,0,0,0,4.68,2.15h5.93a2,2,0,0,0,2-2V93.51a2,2,0,0,0-2-2M229.85,162a2,2,0,0,1-1.79,1.1h-8.95c-2.79,0-3.81-1-4.38-2l-13-18.39c-3.26-4.48-10-4.26-10.06-4.26l-1.06,0H183.9v22.61a2,2,0,0,1-2,2h-9.3a2,2,0,0,1-2-2V93.51a2,2,0,0,1,2-2h29.94c8.73,0,15.89,2.49,20.71,7.2a21.79,21.79,0,0,1,6,15.57v.2c0,10.13-5.34,17.65-15.05,21.17-.4.14-1,.36-1.82.55A12,12,0,0,1,214.8,139l14.9,20.89A2,2,0,0,1,229.85,162Zm-14.16-46.81V115c0-7.15-5.17-11.25-14.18-11.25H183.9v22.81h17.71C210.16,126.52,215.69,122.06,215.69,115.16Zm711.94-85H941V43.47a2,2,0,0,0,2,2h8.34a2,2,0,0,0,2-2V30.19h13.41a2,2,0,0,0,2-2V19.84a2,2,0,0,0-2-2H953.44V4.53a2,2,0,0,0-2-2h-8.34a2,2,0,0,0-2,2V17.81H927.63a2,2,0,0,0-2,2v8.32A2,2,0,0,0,927.63,30.19ZM991.78,32a8,8,0,1,0-8-8A8.06,8.06,0,0,0,991.78,32ZM872.55,32a8,8,0,1,0-8-8A8,8,0,0,0,872.55,32Zm30.3,0a8,8,0,1,0-8.05-8A8.06,8.06,0,0,0,902.85,32ZM1022,32a8,8,0,0,0,1.61-15.93,8.11,8.11,0,0,0-6.72,1.67A8,8,0,0,0,1022,32Zm5.74,156.86H866.3A2.25,2.25,0,0,0,864,192l3.15,8.81c1,2.6,2.26,2.47,4.63,2.41h150.86c2.37.06,3.63.19,4.63-2.41l3.15-8.81C1031,190.37,1029.67,188.89,1027.69,188.89ZM1056.57,65a43.76,43.76,0,0,0-35.65-18.69,44.87,44.87,0,0,0-11.57,1.54L947.23,65.48,885.1,47.82a44.85,44.85,0,0,0-11.56-1.54A43.77,43.77,0,0,0,837.88,65a43.14,43.14,0,0,0-5.38,39.87L853.62,164A15.28,15.28,0,0,0,868,174.15h158.49A15.28,15.28,0,0,0,1040.83,164L1062,104.84A43.17,43.17,0,0,0,1056.57,65ZM870.32,159.24a3.92,3.92,0,0,1-3.71-2.61L846.29,99.71a28.66,28.66,0,0,1,3.55-26.45A29.07,29.07,0,0,1,873.48,60.8a29.93,29.93,0,0,1,7.74,1.05L919.16,72a32.31,32.31,0,0,0-18.48,41.83l17.58,45.39Zm91.22-2.88a4.85,4.85,0,0,1-4.49,3.08H937.41a4.86,4.86,0,0,1-4.5-3.08l-18.44-47.63a17.6,17.6,0,0,1,11.86-23.38l20.9-5.61,20.9,5.61A17.6,17.6,0,0,1,980,108.73Zm86.56-56.47-20.3,56.9a4,4,0,0,1-3.71,2.62l-48,0L993.71,114a32.3,32.3,0,0,0-18.48-41.82L1013.17,62a29.93,29.93,0,0,1,7.75-1,29.07,29.07,0,0,1,23.63,12.46A28.64,28.64,0,0,1,1048.1,99.89ZM328.84,243.61h-9.4v-6.27H345v6.27h-9.4v24.62h-6.79Zm22.81-6.27h14.13c3.92,0,7,1.1,9,3.13a9.7,9.7,0,0,1,2.65,7.06v.09a9.61,9.61,0,0,1-6.62,9.58l7.54,11h-7.94l-6.62-9.88h-5.34v9.88h-6.8Zm13.68,15c3.31,0,5.21-1.76,5.21-4.36v-.09c0-2.92-2-4.42-5.34-4.42h-6.75v8.87ZM385,255V237.34h6.8v17.48c0,5,2.51,7.63,6.66,7.63s6.67-2.52,6.67-7.41v-17.7h6.79v17.43c0,9.36-5.25,14-13.55,14S385,264.08,385,255Zm33.62,8.74,4-4.81c2.78,2.29,5.69,3.75,9.22,3.75,2.79,0,4.46-1.1,4.46-2.91v-.09c0-1.72-1.06-2.6-6.22-3.93-6.22-1.59-10.24-3.31-10.24-9.44v-.09c0-5.6,4.5-9.31,10.81-9.31a17.89,17.89,0,0,1,11.48,3.93L438.61,246c-2.74-1.9-5.43-3-8-3s-4,1.19-4,2.69v.09c0,2,1.33,2.69,6.67,4.06,6.26,1.63,9.79,3.88,9.79,9.27v.09c0,6.13-4.67,9.57-11.34,9.57A19.64,19.64,0,0,1,418.62,263.73Zm39.27-20.12h-9.4v-6.27h25.59v6.27h-9.4v24.62h-6.79Zm38-6.27h6.8v30.89h-6.8Zm14.24,26.39,4-4.81c2.78,2.29,5.7,3.75,9.23,3.75,2.78,0,4.45-1.1,4.45-2.91v-.09c0-1.72-1.06-2.6-6.22-3.93-6.22-1.59-10.24-3.31-10.24-9.44v-.09c0-5.6,4.5-9.31,10.82-9.31a17.84,17.84,0,0,1,11.47,3.93L530.11,246c-2.74-1.9-5.43-3-8-3s-4,1.19-4,2.69v.09c0,2,1.32,2.69,6.66,4.06,6.27,1.63,9.8,3.88,9.8,9.27v.09c0,6.13-4.68,9.57-11.35,9.57A19.66,19.66,0,0,1,510.12,263.73Zm46.64-26.39h23.3v6H563.52v6.26h14.56v6H563.52v6.48h16.76v6.05H556.76Zm42.53-.22h6.27l13.24,31.11h-7.11l-2.82-6.93H595.8L593,268.23h-6.93Zm7.15,18.18-4.1-10-4.11,10Zm18.79-18h14.12c3.93,0,7,1.1,9,3.13a9.7,9.7,0,0,1,2.65,7.06v.09a9.6,9.6,0,0,1-6.62,9.58l7.55,11H644l-6.61-9.88H632v9.88h-6.8Zm13.68,15c3.31,0,5.21-1.76,5.21-4.36v-.09c0-2.92-2-4.42-5.34-4.42H632v8.87Zm20.37-15h6.26l14.48,19v-19h6.7v30.89h-5.78l-15-19.64v19.64h-6.7Zm37.07,0h23.29v6H703.1v6.26h14.56v6H703.1v6.48h16.77v6.05H696.35Zm32,0h12.05c9.71,0,16.41,6.66,16.41,15.36v.09c0,8.69-6.7,15.44-16.41,15.44H728.31Zm12.05,24.76c5.56,0,9.31-3.75,9.31-9.23v-.08a8.87,8.87,0,0,0-9.31-9.32h-5.25V262.1Zm28.19-22.29h-4.72v-2.43H775.9v2.43h-4.71v12.45h-2.64Zm11-2.43h2.78l4.53,7,4.53-7h2.78v14.88h-2.61V241.59l-4.7,7h-.09l-4.65-7v10.62h-2.57Z" transform="translate(-1.02 -2.49)"/></svg>