<?xml version="1.0" encoding="UTF-8" standalone="no"?>
<svg
   xmlns:dc="http://purl.org/dc/elements/1.1/"
   xmlns:cc="http://creativecommons.org/ns#"
   xmlns:rdf="http://www.w3.org/1999/02/22-rdf-syntax-ns#"
   xmlns:svg="http://www.w3.org/2000/svg"
   xmlns="http://www.w3.org/2000/svg"
   xmlns:sodipodi="http://sodipodi.sourceforge.net/DTD/sodipodi-0.dtd"
   xmlns:inkscape="http://www.inkscape.org/namespaces/inkscape"
   viewBox="0 0 218 50"
   height="50"
   width="218"
   xml:space="preserve"
   id="svg29"
   version="1.1"
   sodipodi:docname="FSCA Style Guide V2 (3).svg"
   inkscape:version="0.92.2 5c3e80d, 2017-08-06"><sodipodi:namedview
     pagecolor="#ffffff"
     bordercolor="#666666"
     borderopacity="1"
     objecttolerance="10"
     gridtolerance="10"
     guidetolerance="10"
     inkscape:pageopacity="0"
     inkscape:pageshadow="2"
     inkscape:window-width="1281"
     inkscape:window-height="751"
     id="namedview81"
     showgrid="false"
     inkscape:zoom="2.025"
     inkscape:cx="184.525"
     inkscape:cy="88.248285"
     inkscape:window-x="0"
     inkscape:window-y="0"
     inkscape:window-maximized="0"
     inkscape:current-layer="svg29" /><metadata
     id="metadata35"><rdf:RDF><cc:Work
         rdf:about=""><dc:format>image/svg+xml</dc:format><dc:type
           rdf:resource="http://purl.org/dc/dcmitype/StillImage" /><dc:title></dc:title></cc:Work></rdf:RDF></metadata><defs
     id="defs33"><clipPath
       id="clipPath47"
       clipPathUnits="userSpaceOnUse"><path
         id="path45"
         d="M 0,1080 H 1920 V 0 H 0 Z"
         inkscape:connector-curvature="0" /></clipPath><clipPath
       id="clipPath131"
       clipPathUnits="userSpaceOnUse"><path
         id="path129"
         d="M 741,75 H 1835 V 900 H 741 Z"
         inkscape:connector-curvature="0" /></clipPath></defs><g
     transform="matrix(1.3333333,0,0,-1.3333333,-154.34517,567.59172)"
     id="g37"
     style="fill:#ffffff"><g
       id="g235"
       style="fill:#ffffff"
       transform="matrix(0.0998261,0,0,0.09984018,104.20312,349.43646)"><g
         style="fill:#ffffff"
         id="g245"
         transform="matrix(2.1407523,0,0,2.2544833,635.08398,393.21792)"><path
           inkscape:connector-curvature="0"
           d="M 0,0 -106.938,106.938 -213.872,0.001 -242.59,28.719 -106.938,164.373 28.718,28.718 Z"
           style="fill:#ffffff;fill-opacity:1;fill-rule:nonzero;stroke:none"
           id="path247" /></g><g
         style="fill:#ffffff"
         id="g249"
         transform="matrix(2.1407523,0,0,2.2544833,852.82336,617.44861)"><path
           inkscape:connector-curvature="0"
           d="M 0,0 V -36.464 H 56.322 V -53.412 H 0 V -99.463 H -18.49 V 16.948 H 63.854 V 0 Z"
           style="fill:#ffffff;fill-opacity:1;fill-rule:nonzero;stroke:none"
           id="path251" /></g><g
         style="fill:#ffffff"
         id="g253"
         transform="matrix(2.1407523,0,0,2.2544833,1215.5104,579.62559)"><path
           inkscape:connector-curvature="0"
           d="m 0,0 h -18.146 c -2.054,12.326 -10.444,19.858 -27.391,19.858 -14.893,0 -24.652,-6.334 -24.652,-17.632 0,-9.245 6.848,-14.039 19.345,-16.434 l 16.263,-3.253 c 21.742,-4.28 34.239,-13.524 34.239,-31.5 0,-21.741 -17.804,-35.779 -44.51,-35.779 -28.418,0 -47.42,14.895 -49.646,39.888 h 18.319 c 2.224,-14.723 13.865,-23.453 32.355,-23.453 15.234,0 24.651,6.334 24.651,17.118 0,7.02 -4.622,13.354 -18.318,15.75 l -20.372,3.937 c -21.741,4.109 -31.841,15.236 -31.841,32.356 0,21.228 17.119,34.923 42.968,34.923 C -25.336,35.779 -2.739,26.877 0,0"
           style="fill:#ffffff;fill-opacity:1;fill-rule:nonzero;stroke:none"
           id="path255" /></g><g
         style="fill:#ffffff"
         id="g257"
         transform="matrix(2.1407523,0,0,2.2544833,1453.5913,492.7883)"><path
           inkscape:connector-curvature="0"
           d="m 0,0 h 19.002 c -5.478,-27.905 -27.22,-46.394 -56.322,-46.394 -33.554,0 -60.43,25.679 -60.43,60.431 0,34.923 26.876,60.26 60.43,60.26 29.102,0 50.844,-18.146 56.322,-46.051 L 0,28.246 c -4.622,17.976 -17.973,28.932 -37.32,28.932 -23.794,0 -41.77,-17.975 -41.77,-43.141 0,-24.993 17.976,-43.14 41.77,-43.14 19.347,0 32.698,10.956 37.32,29.103"
           style="fill:#ffffff;fill-opacity:1;fill-rule:nonzero;stroke:none"
           id="path259" /></g><g
         style="fill:#ffffff"
         id="g261"
         transform="matrix(2.1407523,0,0,2.2544833,1670.7835,493.17359)"><path
           inkscape:connector-curvature="0"
           d="M 0,0 -21.398,50.159 -42.969,0 Z M 7.019,-16.435 H -49.816 L -61.8,-44.339 h -19.687 l 51.529,116.411 h 17.29 L 38.689,-44.339 H 19.002 Z"
           style="fill:#ffffff;fill-opacity:1;fill-rule:nonzero;stroke:none"
           id="path263" /></g><g
         style="fill:#ffffff"
         id="g265"
         transform="matrix(2.1407523,0,0,2.2544833,447.41472,411.21185)"><path
           inkscape:connector-curvature="0"
           d="m 0,0 c -10.641,-10.642 -27.897,-10.642 -38.542,0.001 -10.642,10.644 -10.642,27.902 0,38.544 10.643,10.641 27.901,10.641 38.542,0 C 10.641,27.903 10.641,10.645 0,0"
           style="fill:#ffffff;fill-opacity:1;fill-rule:nonzero;stroke:none"
           id="path267" /></g></g></g></svg>