<?xml version="1.0" encoding="utf-8"?>
<!-- Generator: Adobe Illustrator 18.0.0, SVG Export Plug-In . SVG Version: 6.00 Build 0)  -->
<!DOCTYPE svg PUBLIC "-//W3C//DTD SVG 1.1//EN" "http://www.w3.org/Graphics/SVG/1.1/DTD/svg11.dtd">
<svg version="1.1" id="Layer_1" xmlns="http://www.w3.org/2000/svg" xmlns:xlink="http://www.w3.org/1999/xlink" x="0px" y="0px"
	 viewBox="40.4 343.8 531.7 106.8" enable-background="new 40.4 343.8 531.7 106.8" xml:space="preserve">
<path fill="#B99617" d="M116.5,384.2l-5.7,25.4c-11.1,2.3-25.4,4.1-37.3,4.1c-27,0-32.9-11.2-29.4-26.2c4.3-19.2,20.4-27.5,44-27.5
	c19.5,0,32.6,4,30.1,16.9H94.5c0-1.3-0.5-2.9-1.9-4.1s-3.6-2-7.2-2c-9.7,0-16.4,6.2-18.5,15.3c-2.2,9.8,0.9,16.9,12.2,16.9
	c4.9,0,8.7-0.7,10.9-1.7l1.7-7.8h-0.2H78.7l11.9-10.9h15.3c0,0-9.1,3.7-11,4.5c-3,1.2-7.4,2.8-14,5.6c3.8-0.8,7.6-1.8,10.6-2.5
	c5.3-1.4,9.9-2.7,15.1-4.3c1.5-0.4,4.7-1.3,8.3-2.7c2.3-0.7,6.3-3.1,7.6-4c4.6-3.1,6.8-4.9,9.4-8.4c1.7-2.3,2.3-4.5,2.3-7
	c0-3.9-4.3-8.1-8.1-9.7c-1.5-0.6-3.8-1.7-6.3-2.5c-2-0.6-4.4-1.1-6.7-1.5c-6-1.1-12.6-1.1-12.9-1.1h-2.6c-0.4,0-8.3,0.4-8.3,0.4
	c-2.5,0.3-6.1,0.7-8.9,1.2c-7.9,1.2-11.3,2-18.3,4.1c-1.7,0.5-6.7,2.2-11.1,4.1c-4.4,2-7.5,3.7-10.6,5.9v-1c2.3-1.6,4.1-2.7,5.2-3.3
	c1.9-1.1,4.4-2.5,9.7-4.9c8.6-3.9,20.8-7.6,31.7-9.2c3.2-0.5,10.1-1.4,17.4-1.5c3.3-0.1,13.8,0,22,2c4.5,1.2,8.4,2.5,11.3,4.7
	c3.3,2.4,5.3,5.2,5.3,8.7c0,0.4,0.1,2.4-0.4,3.6c-1.7,4.4-4.2,6.5-8.4,9.9c-0.1,0.1-2.5,1.8-2.8,2c-1.9,1.2-4.6,2.9-6.5,4.1
	c-1.9,1.2-4.7,2.5-5.7,3.1C118.7,383.1,117.6,383.7,116.5,384.2L116.5,384.2z"/>
<path fill="#131C48" d="M196.4,382.9c1.9-10.4-8.1-13.7-23.1-13.7c-18.2,0-30.5,6.8-33.8,22.2c-2.6,12.1,1.9,21.2,22.6,21.2
	c9.1,0,20.1-1.5,28.6-3.3l4.7-21.7H168l-1.8,8.7h10l-1.3,6.3c-1.7,0.9-4.6,1.5-8.4,1.5c-8.7,0-11-5.7-9.4-13.7
	c1.6-7.4,6.8-12.4,14.2-12.4c2.8,0,4.5,0.7,5.5,1.7c1,0.9,1.5,2.3,1.5,3.3L196.4,382.9L196.4,382.9z M198.3,411.5h17.4l3.2-15h5.2
	c6,0,6.5,0.7,6.3,5.7l-0.5,9.2h17.3l0.7-13.8c0.2-4.1-2.8-5.6-6.8-5.7l0.1-0.6c5.3-0.9,9.8-4.4,11-9.7c2-9.2-4.6-11.3-15.8-11.3
	h-29.4L198.3,411.5L198.3,411.5z M222.7,378.6h6.3c4.2,0,6.6,1.2,5.8,4.9c-0.8,3.9-3.9,5-7.6,5h-6.6L222.7,378.6L222.7,378.6z
	 M252.9,411.5h17.4l8.8-41.2h-17.4L252.9,411.5L252.9,411.5z M278,411.5h15l6.3-29.4h0.1l8.5,29.4h24.6l8.8-41.2h-15l-5.9,27.6h-0.1
	l-8-27.6h-25.4L278,411.5L278,411.5z M364.8,379.7h4.8c7.9,0,11.8,3.6,10.2,11.3c-1.7,7.7-7.1,11.3-15,11.3H360L364.8,379.7
	L364.8,379.7z M340.7,411.5h25.1c12.7,0,17.7-1.6,23.3-5.5c4.2-2.8,7.5-8.7,8.7-14.8c1.3-6.2,0.3-11.1-2-14.2
	c-4.4-5.7-12.1-6.8-24.3-6.8h-22.1L340.7,411.5L340.7,411.5z M400,411.5h17.4l3.2-15h5.2c6,0,6.5,0.7,6.3,5.7l-0.5,9.2h17.4
	l0.7-13.8c0.2-4.1-2.8-5.6-6.8-5.7l0.1-0.6c5.3-0.9,9.8-4.4,11-9.7c2-9.2-4.6-11.3-15.8-11.3h-29.4L400,411.5L400,411.5z
	 M424.3,378.6h6.3c4.2,0,6.6,1.2,5.8,4.9c-0.8,3.9-3.9,5-7.6,5h-6.6L424.3,378.6L424.3,378.6z M512.1,390.9
	c2.6-12.4-2.8-21.7-23-21.7c-10.6,0-16.1,1.7-20.6,4.6c-5.5,3.3-9.9,9.2-11.6,17.2c-2.6,12.4,2.8,21.7,23,21.7
	c10.6,0,18.4-2.8,23.7-7.1C507.8,402.2,510.8,397.3,512.1,390.9L512.1,390.9z M494.5,390.9c-1.8,8.4-6.8,12.4-12.5,12.4
	s-9.1-3.9-7.3-12.4c1.8-8.4,6.8-12.4,12.5-12.4C492.9,378.6,496.3,382.4,494.5,390.9L494.5,390.9z M538.3,379.7h4.8
	c7.9,0,11.8,3.6,10.2,11.3c-1.7,7.7-7.1,11.3-15,11.3h-4.8L538.3,379.7L538.3,379.7z M514.2,411.5h25.1c12.7,0,17.7-1.6,23.3-5.5
	c4.2-2.8,7.5-8.7,8.7-14.8c1.3-6.2,0.3-11.1-2-14.2c-4.4-5.7-12.1-6.8-24.3-6.8h-22.1L514.2,411.5L514.2,411.5z"/>
<g>
	<g>
		<g>
			<path fill="#131C48" d="M455.8,424h10.3c2,0,3.6,0.1,4.5,0.2c0.9,0.1,1.8,0.5,2.5,1c0.7,0.5,1.2,1.2,1.5,2s0.4,1.7,0.1,2.8
				c-0.3,1.1-0.9,2.1-1.7,3.1s-2,1.6-3.2,2.1c1.5,0.4,2.5,1.2,3.1,2.2c0.6,1,0.7,2.2,0.4,3.6c-0.3,1.1-0.8,2.1-1.6,3.1
				c-0.8,1-1.7,1.8-2.8,2.5c-1.1,0.6-2.4,1-3.8,1.2c-0.9,0.1-3,0.1-6.3,0.1h-8.8L455.8,424z M460,427.9l-1.4,5.5h3.4
				c2,0,3.3,0,3.9-0.1c0.9-0.1,1.7-0.4,2.3-0.9c0.7-0.4,1-1.1,1.2-1.9c0.1-0.7,0.1-1.3-0.2-1.8c-0.4-0.4-0.9-0.7-1.7-0.9
				c-0.5-0.1-2-0.1-4.4-0.1L460,427.9L460,427.9z M457.6,437.4l-1.6,6.4h4.9c1.9,0,3.1-0.1,3.6-0.1c0.8-0.1,1.5-0.4,2.1-0.9
				c0.6-0.5,1-1.2,1.2-2c0.1-0.7,0.1-1.3-0.1-1.8c-0.2-0.5-0.7-0.9-1.4-1.1c-0.7-0.2-2.2-0.4-4.6-0.4H457.6z"/>
			<path fill="#131C48" d="M499.3,447.8h-5.7l-0.9-5.4h-10.3l-3.5,5.4h-5.5l16.1-23.8h5.5L499.3,447.8z M492,438.4l-1.4-8.9
				l-5.7,8.9H492z"/>
			<path fill="#131C48" d="M502.1,447.8l6-23.8h5.1l6.6,15.9l4-15.9h4.9l-6,23.8h-5.2l-6.5-15.6l-3.9,15.6H502.1z"/>
			<path fill="#131C48" d="M528.3,447.8l6-23.8h5.2l-2.6,10.6l13.2-10.6h7.1l-12.1,9.3l6.6,14.5h-6.8l-4.3-11.2l-5.2,4l-1.8,7.2
				H528.3z"/>
		</g>
	</g>
</g>
</svg>
